<svg width="40" height="40" viewBox="0 0 40 40" fill="none" xmlns="http://www.w3.org/2000/svg">
<path fill-rule="evenodd" clip-rule="evenodd" d="M34.9501 6.21423L34.1276 6.0834L33.9118 5.2784L35.1526 4.94507L34.9501 6.21423ZM23.9334 17.7392L23.2243 18.1759L23.2226 18.1742L23.2201 18.1701L23.2118 18.1567L23.1834 18.1092L23.0834 17.9367C22.9668 17.7326 22.8543 17.5262 22.7459 17.3176C22.4029 16.6618 22.1039 15.9839 21.8509 15.2884C21.5693 14.5017 21.3276 13.6009 21.2901 12.7292C21.2534 11.8609 21.4151 10.9184 22.0618 10.1792C22.6426 9.5159 23.7376 8.90507 24.8884 8.37673C26.0809 7.82757 27.4843 7.3009 28.8134 6.84507C30.4599 6.28291 32.1228 5.77046 33.8001 5.3084L33.8834 5.28507L33.9126 5.27673L34.1293 6.08257L34.9518 6.2134L34.9468 6.24424L34.9326 6.33257C34.8494 6.84381 34.7622 7.35438 34.6709 7.86424C34.4489 9.11806 34.2067 10.3682 33.9443 11.6142C33.6476 13.0151 33.3026 14.4834 32.9368 15.7126C32.7738 16.2746 32.5827 16.828 32.3643 17.3709C32.1743 17.8292 31.9493 18.2742 31.6759 18.5876C31.0909 19.2559 30.1801 19.4651 29.3843 19.5184C28.5543 19.5742 27.6343 19.4734 26.8068 19.3267C26.0688 19.1939 25.3378 19.0242 24.6168 18.8184C24.3217 18.7353 24.0283 18.6464 23.7368 18.5517L23.6843 18.5334L23.6701 18.5284L23.6659 18.5276H23.6643L23.9334 17.7392ZM23.9334 17.7392L23.2243 18.1759L23.3809 18.4301L23.6643 18.5276L23.9334 17.7392ZM24.4934 17.0451C25.3469 17.3104 26.2153 17.5247 27.0943 17.6867C27.8643 17.8226 28.6343 17.8992 29.2726 17.8559C29.9468 17.8109 30.2851 17.6459 30.4209 17.4909C30.5076 17.3909 30.6493 17.1542 30.8243 16.7326C31.0204 16.2434 31.192 15.7447 31.3384 15.2384C31.6859 14.0717 32.0201 12.6526 32.3134 11.2701C32.5949 9.93251 32.8528 8.59008 33.0868 7.2434L32.8293 7.3184C31.9051 7.5909 30.6568 7.97507 29.3543 8.42173C28.0493 8.86923 26.7051 9.37507 25.5843 9.8909C24.4209 10.4259 23.6359 10.9117 23.3159 11.2776C23.0601 11.5692 22.9284 12.0184 22.9559 12.6576C22.9826 13.2934 23.1651 14.0159 23.4201 14.7251C23.7112 15.5275 24.0703 16.3037 24.4934 17.0451ZM8.5526 8.31173L8.33677 9.11673L7.51343 9.24757L7.31177 7.97923L8.5526 8.31173ZM16.6209 18.5892L17.3301 19.0251L17.3318 19.0234L17.3334 19.0201L17.3401 19.0092L17.3643 18.9692L17.4476 18.8276C17.8461 18.1317 18.1848 17.4032 18.4601 16.6501C18.6918 16.0034 18.8934 15.2542 18.9243 14.5242C18.9559 13.7967 18.8209 12.9851 18.2593 12.3434C17.7626 11.7751 16.8434 11.2684 15.9101 10.8384C14.9343 10.3892 13.7884 9.95923 12.7059 9.5884C11.3651 9.13094 10.0109 8.71381 8.6451 8.33757L8.57677 8.3184L8.5526 8.31173L8.33677 9.11673L7.51343 9.24757L7.5176 9.27257L7.52927 9.34507L7.57427 9.61673C7.79906 10.9647 8.05218 12.3078 8.33343 13.6451C8.5751 14.7851 8.85677 15.9826 9.1551 16.9867C9.3051 17.4884 9.46177 17.9559 9.62593 18.3501C9.78177 18.7251 9.9726 19.1076 10.2126 19.3809C10.7293 19.9726 11.5234 20.1476 12.1809 20.1909C12.8743 20.2376 13.6351 20.1534 14.3143 20.0342C15.1671 19.8817 16.0081 19.669 16.8309 19.3976L16.8734 19.3834L16.8859 19.3792L16.8901 19.3776L16.6209 18.5892ZM16.6209 18.5892L17.3301 19.0251L17.1734 19.2801L16.8901 19.3776L16.6209 18.5892ZM16.0601 17.8942C16.1129 17.7998 16.1745 17.6851 16.2451 17.5501C16.4434 17.1684 16.6901 16.6484 16.8909 16.0867C17.0951 15.5184 17.2384 14.9476 17.2593 14.4534C17.2809 13.9542 17.1759 13.6367 17.0051 13.4401C16.7693 13.1717 16.1609 12.7884 15.2134 12.3526C14.3101 11.9367 13.2234 11.5276 12.1651 11.1651C11.2432 10.8502 10.3146 10.5552 9.3801 10.2801L9.38343 10.3009C9.5251 11.1009 9.72677 12.1809 9.96427 13.3001C10.2018 14.4217 10.4726 15.5692 10.7526 16.5117C10.8934 16.9834 11.0318 17.3909 11.1651 17.7109C11.3068 18.0501 11.4134 18.2226 11.4668 18.2842C11.5351 18.3617 11.7559 18.4926 12.2926 18.5284C12.7934 18.5617 13.4051 18.5017 14.0251 18.3926C14.7132 18.269 15.3929 18.1031 16.0601 17.8942ZM14.2351 25.8384C14.0234 25.8501 13.9201 25.8801 13.8934 25.8917C13.5159 26.0626 12.3693 26.4626 11.3793 26.8001C10.8709 26.9742 10.3834 27.1376 10.0234 27.2584L10.0001 27.2667V31.7692C10.1468 31.7626 10.3043 31.7567 10.4651 31.7509C11.1551 31.7259 11.9759 31.7009 12.3318 31.7159C13.8251 31.7751 14.9468 32.1284 15.9851 32.4559L16.0076 32.4634C16.9809 32.7701 17.8826 33.0517 19.0634 33.1409C19.3968 33.1659 19.7209 33.1984 20.0234 33.2284H20.0276C21.1893 33.3451 21.9543 33.4034 22.5468 33.1884C23.0076 33.0209 24.6951 32.2384 26.3968 31.3826C27.2384 30.9592 28.0634 30.5284 28.7193 30.1592C29.0484 29.9742 29.3276 29.8092 29.5418 29.6709C29.6479 29.602 29.7334 29.5437 29.7984 29.4959L29.8734 29.4376L29.8968 29.4176C29.9801 29.3334 30.0684 29.0401 29.9251 28.7642C29.8576 28.6352 29.7462 28.5347 29.6109 28.4809C29.4443 28.4084 29.1609 28.3526 28.7109 28.4267C27.6959 28.5934 26.4834 29.0817 25.2726 29.5742L25.2559 29.5817C24.6609 29.8234 24.0643 30.0659 23.5351 30.2426C23.0268 30.4117 22.4626 30.5634 21.9709 30.5342C21.2959 30.4926 20.1118 30.3176 19.1351 30.1592C18.5738 30.0685 18.0133 29.9735 17.4534 29.8742L17.3451 29.8551L17.3068 29.8476L17.4651 28.1942L21.2734 28.2401H21.2818C21.3263 28.2353 21.3703 28.2269 21.4134 28.2151C21.5451 28.1817 21.7709 28.0992 22.0551 27.8984C22.1426 27.8359 22.2576 27.7209 22.3651 27.5667C22.4095 27.5023 22.4473 27.4395 22.4784 27.3784C22.0142 27.3485 21.5528 27.2833 21.0984 27.1834C20.851 27.1295 20.6056 27.067 20.3626 26.9959L20.3343 26.9876L15.6701 25.9492L15.6259 25.9417L15.4509 25.9151C15.2603 25.887 15.0688 25.8656 14.8768 25.8509C14.6634 25.833 14.449 25.8288 14.2351 25.8384ZM15.8334 25.1334L15.9843 24.3142L15.9993 24.3167L20.7643 25.3767L20.7993 25.3876L20.8059 25.3901L20.8376 25.3992L20.9693 25.4367C21.0851 25.4684 21.2518 25.5117 21.4501 25.5551C21.8551 25.6426 22.3618 25.7234 22.8301 25.7234C23.2993 25.7234 23.8093 25.8984 24.0843 26.3967C24.3193 26.8234 24.2609 27.2851 24.1784 27.5901C24.1017 27.8597 23.9875 28.1172 23.8393 28.3551C24.0932 28.2551 24.3615 28.1473 24.6443 28.0317L24.6959 28.0101C25.8443 27.5434 27.2209 26.9834 28.4401 26.7826C29.8568 26.5509 30.9193 27.0592 31.4051 27.9992C31.8334 28.8284 31.7384 29.9217 31.0843 30.5867C30.9201 30.7534 30.6759 30.9226 30.4426 31.0734C30.1454 31.2614 29.843 31.4412 29.5359 31.6126C28.8484 31.9992 27.9976 32.4434 27.1443 32.8726C25.4593 33.7201 23.6843 34.5492 23.1143 34.7559C22.1259 35.1142 20.9826 35.0001 19.9668 34.8984L19.8609 34.8876C19.5535 34.8561 19.2457 34.8283 18.9376 34.8042C17.5543 34.6992 16.4943 34.3651 15.5259 34.0601L15.5051 34.0534C14.4634 33.7251 13.5251 33.4326 12.2651 33.3817C11.9884 33.3709 11.2434 33.3909 10.5251 33.4176C10.1206 33.4322 9.71614 33.4486 9.31177 33.4667L9.20427 33.4717L8.3326 33.5117V26.0651L9.06343 25.8226C9.65645 25.6255 10.2487 25.426 10.8401 25.2242C11.8768 24.8701 12.9218 24.5026 13.2068 24.3742C13.5126 24.2359 13.8601 24.1909 14.1384 24.1742C14.4343 24.1576 14.7384 24.1701 15.0043 24.1901C15.3242 24.2156 15.6429 24.2554 15.9593 24.3092L15.9768 24.3126H15.9818L15.9834 24.3134H15.9851L15.8334 25.1334Z" fill="black"/>
<path fill-rule="evenodd" clip-rule="evenodd" d="M29.2918 11.0334C29.375 11.1046 29.4433 11.1914 29.4929 11.2889C29.5426 11.3865 29.5725 11.4928 29.581 11.6019C29.5895 11.7111 29.5764 11.8208 29.5425 11.9248C29.5087 12.0289 29.4546 12.1253 29.3835 12.2084C26.8993 15.1068 23.8068 19.3543 22.4418 22.8068C22.4015 22.9085 22.3416 23.0014 22.2654 23.08C22.1893 23.1586 22.0984 23.2215 21.9979 23.2649C21.8975 23.3084 21.7895 23.3317 21.68 23.3335C21.5706 23.3352 21.4619 23.3154 21.3601 23.2751C21.2583 23.2348 21.1655 23.1749 21.0869 23.0987C21.0083 23.0226 20.9454 22.9317 20.9019 22.8313C20.8584 22.7308 20.8352 22.6228 20.8334 22.5134C20.8317 22.4039 20.8515 22.2952 20.8918 22.1934C22.361 18.4776 25.601 14.0601 28.1168 11.1243C28.2607 10.9565 28.4653 10.8528 28.6856 10.8359C28.906 10.8191 29.124 10.8904 29.2918 11.0343M12.8168 13.7068C12.7309 13.7746 12.6591 13.8587 12.6057 13.9542C12.5523 14.0498 12.5182 14.155 12.5054 14.2637C12.4927 14.3724 12.5015 14.4826 12.5313 14.5879C12.5611 14.6933 12.6114 14.7917 12.6793 14.8776C14.5476 17.2484 16.5876 20.2826 17.556 22.7993C17.6391 23.0001 17.7974 23.1606 17.9972 23.2463C18.1969 23.3321 18.4223 23.3364 18.6252 23.2583C18.8281 23.1803 18.9924 23.026 19.0832 22.8284C19.1739 22.6309 19.1839 22.4057 19.111 22.2009C18.0518 19.4476 15.8876 16.2551 13.9876 13.8459C13.8509 13.6724 13.6508 13.5602 13.4314 13.5341C13.212 13.508 12.9904 13.5701 12.8168 13.7068Z" fill="black"/>
<path d="M5 24.1667H10V35.0001H5V24.1667Z" fill="black"/>
</svg>
