<svg width="37" height="29" viewBox="0 0 37 29" fill="none" xmlns="http://www.w3.org/2000/svg">
<path d="M28.75 28.1667L35.2827 21.634C35.4749 21.442 35.5831 21.1814 35.5833 20.9097V11.9375C35.5833 11.2579 35.3134 10.6061 34.8328 10.1255C34.3522 9.64498 33.7005 9.375 33.0208 9.375C32.3412 9.375 31.6894 9.64498 31.2089 10.1255C30.7283 10.6061 30.4583 11.2579 30.4583 11.9375V19.625" stroke="#E6322E" stroke-width="1.5" stroke-linecap="round" stroke-linejoin="round"/>
<path d="M28.7501 21.3333L30.2158 19.8676C30.2931 19.7909 30.3544 19.6996 30.3961 19.599C30.4377 19.4984 30.4589 19.3905 30.4584 19.2816C30.4572 19.1282 30.4139 18.9781 30.3331 18.8476C30.2524 18.7172 30.1374 18.6114 30.0006 18.5419L29.2438 18.1644C28.6026 17.8438 27.8769 17.733 27.1693 17.8477C26.4617 17.9623 25.8081 18.2966 25.301 18.8033L23.772 20.3322C23.1312 20.9728 22.7711 21.8417 22.7709 22.7478V28.1667M8.25008 28.1667L1.71741 21.634C1.52514 21.442 1.41699 21.1814 1.41675 20.9097V11.9375C1.41675 11.2579 1.68673 10.6061 2.16729 10.1255C2.64785 9.64498 3.29963 9.375 3.97925 9.375C4.65887 9.375 5.31065 9.64498 5.79121 10.1255C6.27177 10.6061 6.54175 11.2579 6.54175 11.9375V19.625" stroke="#E6322E" stroke-width="1.5" stroke-linecap="round" stroke-linejoin="round"/>
<path d="M8.25008 21.3333L6.78433 19.8675C6.63127 19.7106 6.54442 19.5008 6.54175 19.2815C6.54175 18.9689 6.71941 18.6836 6.99958 18.5418L7.75637 18.1643C8.39753 17.8437 9.12327 17.7329 9.83088 17.8476C10.5385 17.9622 11.1921 18.2966 11.6992 18.8032L13.2282 20.3322C13.869 20.9728 14.2291 21.8417 14.2292 22.7478V28.1666M21.3479 14.4999H15.6523V10.5144H11.6667V4.81879H15.6523V0.833252H21.3479V4.81879H25.3334V10.5144H21.3479V14.4999Z" stroke="#E6322E" stroke-width="1.5" stroke-linecap="round" stroke-linejoin="round"/>
</svg>
