<svg width="21" height="28" viewBox="0 0 21 28" fill="none" xmlns="http://www.w3.org/2000/svg">
<path fill-rule="evenodd" clip-rule="evenodd" d="M10.8242 26.0212C12.3337 24.5896 13.7308 23.0336 15.0019 21.3681C17.6794 17.8523 19.3082 14.3858 19.4184 11.3034C19.4621 10.0507 19.2637 8.80167 18.8351 7.63089C18.4065 6.46011 17.7565 5.39162 16.924 4.48926C16.0915 3.58689 15.0935 2.86916 13.9896 2.37894C12.8858 1.88871 11.6987 1.63605 10.4993 1.63605C9.29997 1.63605 8.1129 1.88871 7.00904 2.37894C5.90518 2.86916 4.90718 3.58689 4.07466 4.48926C3.24214 5.39162 2.59218 6.46011 2.1636 7.63089C1.73503 8.80167 1.53662 10.0507 1.58025 11.3034C1.69181 14.3858 3.32194 17.8523 5.99812 21.3681C7.26923 23.0336 8.66629 24.5896 10.1758 26.0212C10.3211 26.1584 10.4291 26.2581 10.5 26.3203L10.8242 26.0212ZM9.53137 27.6193C9.53137 27.6193 0 19.2295 0 10.9742C0 8.06366 1.10625 5.27233 3.07538 3.21427C5.04451 1.15621 7.71523 0 10.5 0C13.2848 0 15.9555 1.15621 17.9246 3.21427C19.8938 5.27233 21 8.06366 21 10.9742C21 19.2295 11.4686 27.6193 11.4686 27.6193C10.9384 28.1296 10.0656 28.1241 9.53137 27.6193ZM10.5 14.8152C11.4747 14.8152 12.4094 14.4105 13.0986 13.6902C13.7878 12.9699 14.175 11.9929 14.175 10.9742C14.175 9.95551 13.7878 8.97855 13.0986 8.25823C12.4094 7.5379 11.4747 7.13323 10.5 7.13323C9.52533 7.13323 8.59058 7.5379 7.90138 8.25823C7.21219 8.97855 6.825 9.95551 6.825 10.9742C6.825 11.9929 7.21219 12.9699 7.90138 13.6902C8.59058 14.4105 9.52533 14.8152 10.5 14.8152ZM10.5 16.4613C9.10761 16.4613 7.77225 15.8832 6.78769 14.8542C5.80312 13.8251 5.25 12.4295 5.25 10.9742C5.25 9.51893 5.80312 8.12327 6.78769 7.09424C7.77225 6.06521 9.10761 5.4871 10.5 5.4871C11.8924 5.4871 13.2277 6.06521 14.2123 7.09424C15.1969 8.12327 15.75 9.51893 15.75 10.9742C15.75 12.4295 15.1969 13.8251 14.2123 14.8542C13.2277 15.8832 11.8924 16.4613 10.5 16.4613Z" fill="#E6322E"/>
</svg>
