<svg width="27" height="22" viewBox="0 0 27 22" fill="none" xmlns="http://www.w3.org/2000/svg">
<path d="M4.60526 0.5H22.3947C23.4835 0.5 24.5277 0.942499 25.2976 1.73015C26.0675 2.5178 26.5 3.58609 26.5 4.7V17.3C26.5 18.4139 26.0675 19.4822 25.2976 20.2698C24.5277 21.0575 23.4835 21.5 22.3947 21.5H4.60526C3.51648 21.5 2.47229 21.0575 1.7024 20.2698C0.932518 19.4822 0.5 18.4139 0.5 17.3V4.7C0.5 3.58609 0.932518 2.5178 1.7024 1.73015C2.47229 0.942499 3.51648 0.5 4.60526 0.5ZM4.60526 1.9C3.92105 1.9 3.31895 2.138 2.85368 2.558L13.5 9.6L24.1463 2.558C23.6811 2.138 23.0789 1.9 22.3947 1.9H4.60526ZM13.5 11.294L2.04632 3.692C1.93684 4 1.86842 4.35 1.86842 4.7V17.3C1.86842 18.0426 2.15677 18.7548 2.67002 19.2799C3.18328 19.805 3.87941 20.1 4.60526 20.1H22.3947C23.1206 20.1 23.8167 19.805 24.33 19.2799C24.8432 18.7548 25.1316 18.0426 25.1316 17.3V4.7C25.1316 4.35 25.0632 4 24.9537 3.692L13.5 11.294Z" fill="#222222"/>
</svg>
