<svg width="47" height="47" viewBox="0 0 47 47" fill="none" xmlns="http://www.w3.org/2000/svg">
<path d="M30.8816 38.3685C31.369 38.3685 31.7842 38.1981 32.1271 37.8574C32.4683 37.5184 32.6389 37.1067 32.6389 36.6224C32.6389 36.1364 32.4683 35.7239 32.1271 35.3849C31.7859 35.0442 31.3708 34.8738 30.8816 34.8738C30.3925 34.8738 29.9773 35.0442 29.6361 35.3849C29.2949 35.7256 29.1243 36.1381 29.1243 36.6224C29.1243 37.1067 29.2949 37.5184 29.6361 37.8574C29.9773 38.1981 30.3925 38.3685 30.8816 38.3685ZM36.5555 38.3685C37.043 38.3685 37.4581 38.1981 37.801 37.8574C38.1422 37.5184 38.3128 37.1067 38.3128 36.6224C38.3128 36.1364 38.1422 35.7239 37.801 35.3849C37.4599 35.0442 37.0447 34.8738 36.5555 34.8738C36.0664 34.8738 35.6512 35.0442 35.31 35.3849C34.9689 35.7256 34.7983 36.1381 34.7983 36.6224C34.7983 37.1067 34.9689 37.5184 35.31 37.8574C35.6512 38.1981 36.0664 38.3685 36.5555 38.3685ZM42.2295 38.3685C42.7169 38.3685 43.1321 38.1981 43.475 37.8574C43.8162 37.5184 43.9868 37.1067 43.9868 36.6224C43.9868 36.1364 43.8162 35.7239 43.475 35.3849C43.1338 35.0442 42.7186 34.8738 42.2295 34.8738C41.7403 34.8738 41.3252 35.0442 40.984 35.3849C40.6428 35.7256 40.4722 36.1381 40.4722 36.6224C40.4722 37.1067 40.6428 37.5184 40.984 37.8574C41.3252 38.1981 41.7403 38.3685 42.2295 38.3685ZM4.21955 41.5103C3.05848 41.5103 2.06539 41.0995 1.24028 40.2779C0.415166 39.4564 0.00174074 38.4714 0 37.3229V4.18994C0 3.03803 0.413426 2.05216 1.24028 1.23234C2.06713 0.412508 3.05935 0.00172959 4.21694 0H37.5608C38.7202 0 39.7124 0.410778 40.5375 1.23234C41.3626 2.05389 41.776 3.03976 41.7778 4.18994V17.4629C41.7778 17.8295 41.6524 18.1374 41.4018 18.3865C41.1511 18.6355 40.8404 18.76 40.4696 18.76C40.0988 18.76 39.789 18.6355 39.54 18.3865C39.2911 18.1374 39.1667 17.8295 39.1667 17.4629V4.19254C39.1667 3.793 38.9995 3.42633 38.6653 3.09251C38.3311 2.7587 37.9621 2.59266 37.5582 2.59439H4.21955C3.81744 2.59439 3.44841 2.76043 3.11244 3.09251C2.77648 3.4246 2.60937 3.79127 2.61111 4.19254V37.3203C2.61111 37.7181 2.77822 38.0839 3.11244 38.4178C3.44667 38.7516 3.81483 38.9176 4.21694 38.9159H17.5754C17.9444 38.9159 18.2543 39.0404 18.5049 39.2895C18.7556 39.5385 18.8809 39.8473 18.8809 40.2157C18.8809 40.5841 18.7556 40.8919 18.5049 41.1393C18.2543 41.3866 17.9444 41.5103 17.5754 41.5103H4.21955ZM2.61111 36.3396V38.9159V2.59439V18.9546V18.76V36.3396ZM9.13889 30.536C9.13889 30.9044 9.26422 31.2123 9.51489 31.4596C9.76555 31.7069 10.0754 31.8306 10.4444 31.8306H18.1733C18.5424 31.8306 18.8522 31.7061 19.1029 31.457C19.3535 31.2079 19.478 30.9001 19.4763 30.5334C19.4745 30.1667 19.3501 29.8589 19.1029 29.6098C18.8557 29.3607 18.545 29.2362 18.1707 29.2362H10.4444C10.0737 29.2362 9.76381 29.3607 9.51489 29.6098C9.26422 29.8589 9.13889 30.1676 9.13889 30.536ZM9.13889 20.7551C9.13889 21.1253 9.26422 21.434 9.51489 21.6813C9.76555 21.9287 10.0754 22.0523 10.4444 22.0523H27.3644C27.7352 22.0523 28.0459 21.9278 28.2966 21.6787C28.5473 21.4297 28.6726 21.1209 28.6726 20.7525C28.6726 20.3841 28.5473 20.0763 28.2966 19.8289C28.0459 19.5816 27.7361 19.4579 27.367 19.4579H10.4444C10.0737 19.4579 9.76381 19.5825 9.51489 19.8315C9.26596 20.0806 9.14063 20.3893 9.13889 20.7577M9.13889 10.9769C9.13889 11.3453 9.26422 11.654 9.51489 11.9031C9.76555 12.1521 10.0754 12.2749 10.4444 12.2715H31.3333C31.7041 12.2715 32.014 12.1469 32.2629 11.8979C32.5135 11.6488 32.6389 11.3401 32.6389 10.9717C32.6389 10.6033 32.5135 10.2954 32.2629 10.0481C32.0122 9.80075 31.7024 9.67795 31.3333 9.67968H10.4444C10.0737 9.67968 9.76381 9.80421 9.51489 10.0533C9.26596 10.3023 9.14063 10.6111 9.13889 10.9795M36.5555 47C33.6468 47 31.1793 45.9925 29.153 43.9775C27.1251 41.9643 26.1111 39.5126 26.1111 36.6224C26.1111 33.7323 27.1251 31.2797 29.153 29.2647C31.181 27.2498 33.6485 26.2431 36.5555 26.2449C39.4626 26.2466 41.931 27.2532 43.9607 29.2647C45.9904 31.2763 47.0035 33.7288 47 36.6224C47 39.5109 45.9869 41.9626 43.9607 43.9775C41.931 45.9925 39.4626 47 36.5555 47Z" fill="#E6322E"/>
</svg>
