<svg width="25" height="24" viewBox="0 0 25 24" fill="none" xmlns="http://www.w3.org/2000/svg">
<path fill-rule="evenodd" clip-rule="evenodd" d="M3.55577 1.48624C5.05349 -0.0180541 7.51973 0.249239 8.77378 1.9425L10.3269 4.03609C11.3483 5.41357 11.2573 7.33808 10.0451 8.55519L9.75216 8.85108C9.71894 8.97529 9.71557 9.10571 9.74231 9.2315C9.81984 9.73874 10.2395 10.8129 11.9969 12.5783C13.7543 14.3436 14.8249 14.7663 15.3344 14.8459C15.4628 14.872 15.5954 14.8681 15.7221 14.8347L16.2242 14.3299C17.3023 13.2483 18.9563 13.0457 20.2903 13.778L22.6409 15.0709C24.6555 16.1749 25.1637 18.9398 23.5147 20.597L21.7659 22.3525C21.2146 22.9057 20.4737 23.3669 19.5704 23.4527C17.3429 23.6628 12.1532 23.3943 6.69765 17.9154C1.6064 12.8008 0.629253 8.34012 0.504956 6.1421C0.443423 5.03066 0.962763 4.09079 1.62486 3.42691L3.55577 1.48624ZM7.29698 3.06016C6.67304 2.2185 5.51129 2.15137 4.85658 2.80903L2.92444 4.74845C2.51832 5.15623 2.32388 5.60627 2.34849 6.03643C2.44694 7.78315 3.23457 11.8075 7.99969 16.5939C12.9986 21.614 17.6149 21.7644 19.3993 21.5953C19.7636 21.5618 20.1254 21.3703 20.4638 21.0309L22.2114 19.2742C22.9227 18.5606 22.7664 17.2602 21.7597 16.7082L19.4092 15.4165C18.7594 15.061 17.9988 15.1778 17.5263 15.6527L16.9663 16.2159L16.3141 15.5545C16.9663 16.2159 16.9651 16.2172 16.9638 16.2172L16.9626 16.2196L16.9589 16.2234L16.9503 16.2308L16.9318 16.2482C16.8799 16.297 16.8239 16.341 16.7645 16.38C16.666 16.4459 16.5356 16.5193 16.3719 16.5802C16.0396 16.7057 15.599 16.7729 15.0551 16.6883C13.9881 16.523 12.5741 15.7882 10.6948 13.901C8.81685 12.0138 8.08338 10.5941 7.91847 9.51745C7.83355 8.96794 7.90124 8.52287 8.02677 8.1872C8.09585 7.99832 8.19477 7.82198 8.31967 7.66505L8.35905 7.62153L8.37628 7.60289L8.38366 7.59543L8.38735 7.5917L8.38981 7.58921L8.74424 7.23365C9.27097 6.70279 9.34481 5.82384 8.84885 5.15374L7.29698 3.06016Z" fill="#222222"/>
</svg>
