<svg width="34" height="33" viewBox="0 0 34 33" fill="none" xmlns="http://www.w3.org/2000/svg">
<path d="M22.8987 3.4375H11.5234C9.95037 3.4375 9.16387 3.4375 8.5795 3.84037C7.99375 4.24462 7.76275 4.94588 7.30075 6.34975L4.12725 15.9748C3.32287 18.4168 2.92 19.6377 3.58275 20.4751C4.2455 21.3125 5.61362 21.3125 8.35125 21.3125H19.7266C21.2996 21.3125 22.0847 21.3125 22.6705 20.9096C23.2562 20.5054 23.4872 19.8041 23.9492 18.4002L27.1227 8.77525C27.9271 6.33325 28.33 5.11225 27.6672 4.27487C27.0045 3.4375 25.6364 3.4375 22.8987 3.4375Z" stroke="#222222" stroke-width="1.5" stroke-linecap="round" stroke-linejoin="round"/>
<path d="M30.75 8.25L26.5673 20.9179C25.9568 22.7645 25.6515 23.6885 24.8801 24.2179C24.1101 24.75 23.072 24.75 20.9985 24.75H6M6.6875 9.625H26.625M24.5625 15.125H4.625M15.625 25.4375V29.5625M15.625 29.5625H18.375M15.625 29.5625H12.875" stroke="#222222" stroke-width="1.5" stroke-linecap="round" stroke-linejoin="round"/>
<path d="M21.8125 3.4375H14.9375L9.4375 21.3125H16.3125L21.8125 3.4375Z" stroke="#222222" stroke-width="1.5" stroke-linecap="round" stroke-linejoin="round"/>
</svg>
