<svg width="49" height="49" viewBox="0 0 49 49" fill="none" xmlns="http://www.w3.org/2000/svg">
<path d="M2 15.4692C2.24632 10.4955 2.98289 7.39289 5.19026 5.19026C7.39289 2.98289 10.4955 2.24632 15.4692 2M47 15.4692C46.7537 10.4955 46.0171 7.39289 43.8097 5.19026C41.6071 2.98289 38.5045 2.24632 33.5308 2M33.5308 47C38.5045 46.7537 41.6071 46.0171 43.8097 43.8097C46.0171 41.6071 46.7537 38.5045 47 33.5308M15.4692 47C10.4955 46.7537 7.39289 46.0171 5.19026 43.8097C2.98289 41.6071 2.24632 38.5045 2 33.5308M42.5829 22.8847C43.1584 23.6047 43.4474 23.9671 43.4474 24.5C43.4474 25.0329 43.1584 25.3953 42.5829 26.1153C39.9942 29.3553 33.3839 36.3421 24.5 36.3421C15.6161 36.3421 9.00579 29.3553 6.4171 26.1153C5.84158 25.3953 5.55263 25.0329 5.55263 24.5C5.55263 23.9671 5.84158 23.6047 6.4171 22.8847C9.00579 19.6447 15.6161 12.6579 24.5 12.6579C33.3839 12.6579 39.9942 19.6447 42.5829 22.8847Z" stroke="#222222" stroke-width="3" stroke-linecap="round" stroke-linejoin="round"/>
<path d="M29.2369 24.5C29.2369 23.2437 28.7378 22.0389 27.8495 21.1506C26.9611 20.2622 25.7563 19.7632 24.5 19.7632C23.2437 19.7632 22.0389 20.2622 21.1506 21.1506C20.2622 22.0389 19.7632 23.2437 19.7632 24.5C19.7632 25.7563 20.2622 26.9611 21.1506 27.8495C22.0389 28.7378 23.2437 29.2369 24.5 29.2369C25.7563 29.2369 26.9611 28.7378 27.8495 27.8495C28.7378 26.9611 29.2369 25.7563 29.2369 24.5Z" stroke="#222222" stroke-width="3" stroke-linecap="round" stroke-linejoin="round"/>
</svg>
