<svg width="300" height="271" viewBox="0 0 300 271" fill="none" xmlns="http://www.w3.org/2000/svg">
<path d="M218.47 20.4532L203.602 27.6062L192.872 5.30289C190.896 1.19535 185.969 -0.531072 181.861 1.44495L137.254 22.904C133.147 24.88 131.42 29.8074 133.396 33.915L144.126 56.2183L84.6503 84.8304L73.9208 62.5271C71.9448 58.4195 67.0174 56.6931 62.9098 58.6691L18.3031 80.1282C14.1956 82.1042 12.4692 87.0316 14.4452 91.1392L25.1747 113.443L10.3058 120.596C2.09538 124.545 -1.35989 134.407 2.58992 142.617L59.8141 261.569C63.7639 269.779 73.6256 273.234 81.836 269.285L290.001 169.142C298.211 165.192 301.666 155.331 297.717 147.12L240.492 28.1691C236.543 19.9587 226.681 16.5034 218.47 20.4532ZM115.051 148.023C116.039 150.077 115.175 152.541 113.122 153.529L61.0805 178.564C59.0268 179.552 56.5631 178.689 55.5751 176.635L51.9985 169.201C51.0105 167.147 51.8737 164.683 53.9275 163.695L105.969 138.66C108.022 137.672 110.486 138.535 111.474 140.589L115.051 148.023ZM234.002 90.7991C234.99 92.8528 234.127 95.3165 232.073 96.3046L213.487 105.246L222.428 123.832C223.416 125.886 222.553 128.349 220.499 129.337L213.065 132.914C211.011 133.902 208.547 133.039 207.559 130.985L198.618 112.399L180.032 121.34C177.978 122.328 175.514 121.465 174.526 119.411L170.95 111.977C169.962 109.923 170.825 107.459 172.879 106.471L191.465 97.53L182.524 78.9438C181.536 76.8901 182.399 74.4264 184.453 73.4383L191.887 69.8618C193.941 68.8738 196.404 69.737 197.392 71.7908L206.334 90.3769L224.92 81.4357C226.974 80.4476 229.437 81.3109 230.425 83.3646L234.002 90.7991Z" fill="#E6322E" fill-opacity="0.1"/>
</svg>
