<svg width="321" height="332" viewBox="0 0 321 332" fill="none" xmlns="http://www.w3.org/2000/svg">
<path d="M0.516656 165.351C-0.232986 162.465 0.183119 159.402 1.67342 156.836C3.16373 154.27 5.60615 152.412 8.46341 151.67L30.01 146.074C32.8672 145.332 35.9052 145.767 38.4557 147.283C41.0061 148.8 42.8601 151.273 43.6098 154.16C44.3594 157.046 43.9433 160.109 42.453 162.675C40.9627 165.241 38.5203 167.099 35.663 167.841L14.1165 173.437C11.2592 174.179 8.22119 173.744 5.67074 172.228C3.12028 170.711 1.2663 168.238 0.516656 165.351ZM37.6279 90.0007C40.1798 91.5179 43.2195 91.9532 46.0783 91.2107C48.9372 90.4683 51.381 88.6089 52.8721 86.0417C54.3632 83.4745 54.7796 80.4098 54.0295 77.5217C53.2794 74.6335 51.4244 72.1586 48.8726 70.6414L29.6324 59.2137C27.0878 57.7878 24.0968 57.4184 21.297 58.1843C18.4972 58.9502 16.1101 60.7908 14.6447 63.3137C13.1793 65.8366 12.7515 68.8421 13.4526 71.6895C14.1537 74.5369 15.9282 77.0008 18.3976 78.5559L37.6279 90.0007ZM107.184 44.7078C110.041 43.9658 112.483 42.1075 113.974 39.5417C115.464 36.9759 115.88 33.9128 115.131 31.0263L109.477 9.25911C108.728 6.3726 106.874 3.89908 104.323 2.38271C101.773 0.866345 98.7349 0.431334 95.8777 1.17338C93.0204 1.91542 90.578 3.77373 89.0877 6.33951C87.5974 8.90528 87.1813 11.9683 87.9309 14.8549L93.584 36.6221C94.3336 39.5086 96.1876 41.9821 98.7381 43.4985C101.289 45.0148 104.327 45.4499 107.184 44.7078ZM183.194 55.5948C184.609 55.2283 185.938 54.5838 187.104 53.6979C188.27 52.812 189.25 51.7022 189.989 50.4318L201.22 31.076C202.621 28.5158 202.972 25.4998 202.199 22.6711C201.426 19.8424 199.59 17.4248 197.082 15.9338C194.574 14.4428 191.593 13.9963 188.775 14.6895C185.956 15.3828 183.523 17.1609 181.993 19.6448L170.745 38.9905C169.632 40.9044 169.109 43.1112 169.241 45.3317C169.373 47.5522 170.155 49.6864 171.488 51.4643C172.821 53.2421 174.645 54.5835 176.728 55.3188C178.812 56.0541 181.062 56.1501 183.194 55.5948ZM215.982 109.394C216.732 112.28 218.586 114.754 221.136 116.27C223.687 117.786 226.725 118.221 229.582 117.479L251.129 111.884C253.986 111.142 256.428 109.283 257.919 106.718C259.409 104.152 259.825 101.089 259.075 98.2022C258.326 95.3157 256.472 92.8422 253.921 91.3258C251.371 89.8094 248.333 89.3744 245.476 90.1165L223.929 95.7122C221.072 96.4542 218.629 98.3126 217.139 100.878C215.649 103.444 215.233 106.507 215.982 109.394ZM78.7561 156.65C81.6134 155.908 84.0558 154.049 85.5461 151.484C87.0364 148.918 87.4525 145.855 86.7029 142.968C83.7043 131.422 85.3687 119.17 91.3299 108.907C97.2912 98.6437 107.061 91.2104 118.49 88.2422C129.919 85.2741 142.071 87.0141 152.273 93.0796C162.475 99.1451 169.891 109.039 172.889 120.585C173.639 123.472 175.493 125.945 178.043 127.462C180.594 128.978 183.632 129.413 186.489 128.671C189.346 127.929 191.789 126.071 193.279 123.505C194.769 120.939 195.185 117.876 194.436 114.989C189.938 97.6704 178.814 82.8293 163.511 73.7311C148.208 64.6328 129.98 62.0228 112.837 66.475C95.6933 70.9273 81.0387 82.0772 72.0969 97.4718C63.1551 112.866 60.6585 131.245 65.1563 148.564C65.906 151.45 67.7599 153.924 70.3104 155.44C72.8609 156.957 75.8989 157.392 78.7561 156.65ZM161.571 169.995L120.633 180.627C119.403 180.946 118.32 181.681 117.564 182.709C116.809 183.738 116.426 184.998 116.48 186.28L118.23 227.722L186.586 209.969L167.95 172.913C167.373 171.767 166.426 170.852 165.265 170.321C164.105 169.79 162.801 169.675 161.571 169.995ZM29.1519 276.996L18.4961 317.607C17.8858 319.932 18.0326 322.397 18.9149 324.638C19.7973 326.88 21.3685 328.78 23.397 330.058C24.7283 330.875 26.2094 331.411 27.7499 331.633C29.2904 331.855 30.8579 331.757 32.3567 331.347L95.2323 315.018C96.4625 314.699 97.5453 313.964 98.3008 312.936C99.0562 311.907 99.4388 310.647 99.3848 309.365L97.1384 256.435L33.1316 273.058C32.1815 273.3 31.313 273.792 30.6141 274.484C29.9152 275.175 29.4108 276.042 29.1519 276.996ZM317.379 239.899L288.384 209.672C287.694 208.965 286.831 208.453 285.884 208.189C284.937 207.925 283.939 207.918 282.991 208.168L218.971 224.794L242.764 272.129C243.34 273.275 244.288 274.19 245.448 274.721C246.609 275.252 247.912 275.367 249.142 275.047L311.923 258.742C313.432 258.371 314.849 257.693 316.087 256.75C317.325 255.807 318.358 254.618 319.124 253.256C320.294 251.161 320.764 248.737 320.463 246.344C320.163 243.951 319.108 241.715 317.455 239.966L317.379 239.899ZM261.644 181.763L237.145 156.177C235.764 154.738 234.03 153.694 232.121 153.154C230.212 152.613 228.197 152.595 226.284 153.102L194.624 161.324C193.819 161.533 193.072 161.921 192.437 162.46C191.802 162.999 191.296 163.676 190.955 164.44C190.614 165.204 190.448 166.036 190.468 166.876C190.489 167.715 190.695 168.54 191.072 169.29L208.61 204.163L259.042 191.065C259.979 190.82 260.834 190.332 261.525 189.65C262.215 188.968 262.716 188.116 262.979 187.177C263.241 186.237 263.256 185.244 263.022 184.295C262.788 183.345 262.313 182.473 261.644 181.763ZM87.5589 189.217L55.8585 197.449C53.9407 197.938 52.1892 198.934 50.7844 200.335C49.3796 201.736 48.3723 203.492 47.8664 205.421L38.933 239.602C38.6743 240.555 38.6698 241.562 38.9202 242.52C39.1706 243.477 39.6669 244.353 40.3589 245.057C41.051 245.762 41.9142 246.27 42.8613 246.531C43.8084 246.793 44.8059 246.797 45.7528 246.544L96.1852 233.447L94.5379 194.447C94.5026 193.608 94.2815 192.787 93.8909 192.044C93.5003 191.301 92.95 190.655 92.2806 190.153C91.6111 189.652 90.8395 189.307 90.0224 189.145C89.2054 188.983 88.3636 189.007 87.5589 189.217ZM196.926 230.519L119.197 250.706L121.327 301.198C121.363 302.037 121.584 302.858 121.974 303.601C122.365 304.344 122.915 304.99 123.585 305.492C124.254 305.994 125.026 306.338 125.843 306.5C126.66 306.662 127.502 306.638 128.306 306.429L216.082 283.633C216.886 283.424 217.634 283.036 218.269 282.497C218.904 281.958 219.41 281.281 219.751 280.517C220.091 279.753 220.258 278.921 220.237 278.081C220.217 277.242 220.011 276.417 219.633 275.667L196.926 230.519Z" fill="#E6322E" fill-opacity="0.1"/>
</svg>
